<svg preserveAspectRatio="xMidYMid slice" width="512" height="512" viewBox="0 0 512 512" fill="none" xmlns="http://www.w3.org/2000/svg"><g clip-path="url(#clip0_755_1599)"><path opacity=".5" d="M145.98 0H0v231.98l145.98-48.65V0Z" fill="#fff"></path><path d="M512 0H0v512h512V0Z" fill="#D2D5D9"></path><path opacity=".5" d="M145.98 0v183.33S350.7 251.57 512 305.34V0H145.98Z" fill="#E8E9EB"></path><path opacity=".5" d="M0 231.98V512h512V305.33c-161.3-53.77-366.02-122.01-366.02-122.01L0 231.98Z" fill="#fff"></path><path opacity=".5" d="M461.33 380 37.34 409.33l308 102.67H512V396.89c-15.66-5.22-32.98-10.99-50.67-16.89Z" fill="#B6BABF"></path><path opacity=".25" d="M58.68 76.41c13.5 5.21 28.62-1.92 33.18-15.65L112.06 0H0v178.21l25.25-85.34c4.2-14.19 19.62-21.78 33.43-16.45v-.01ZM452.56 6.25c11.92 21.49 2.1 44.42-21.79 50.84-28.45 7.65-35.82 37.89-14.73 60.47l95.95 102.7V0h-62.91l3.47 6.25h.01Z" fill="#fff"></path><path d="m293.34 172-256 85.33 168 56 256-85.33-168-56Z" fill="#BF8563"></path><path d="m461.34 228-256 85.33v152l256-85.33V228Z" fill="#975D48"></path><path d="m37.34 409.33 168 56v-152l-168-56v152Z" fill="#975D48"></path><path opacity=".5" d="m37.34 409.33 168 56v-152l-168-56v152Z" fill="#BF8563"></path><path d="m326.56 132.49-135.25 45.08 88.76 29.59 135.24-45.08-88.75-29.59Z" fill="#E9AF58"></path><path d="m415.31 162.08-135.24 45.08v64l135.24-45.08v-64Z" fill="#D9942D"></path><path d="m191.31 241.57 88.76 29.59v-64l-88.76-29.59v64Z" fill="#E0A143"></path><path d="m287.66 116.96-56.17-18.57v66.2l56.17 18.57v-66.2Z" fill="#975D48"></path><path d="m287.66 116.96-56.17-18.57v66.2l56.17 18.57v-66.2Z" fill="#BF8563"></path><path d="m290.09 80.88-58.6 17.51 56.17 18.57 55.55-18.52-53.12-17.56Z" fill="#BF8563"></path><path d="m343.21 98.44-55.55 18.52v66.2l55.55-18.52v-66.2Z" fill="#975D48"></path><path d="m143.62 177.28-56.17-18.57v93.7l56.17 18.57v-93.7Z" fill="#5BA7B1"></path><path d="m146.05 141.2-58.6 17.51 56.17 18.57 55.55-18.52-53.12-17.56Z" fill="#7FBEC6"></path><path d="m199.17 158.76-55.55 18.52v93.7l55.55-18.52v-93.7Z" fill="#3C8B96"></path><path d="m220.32 216.62-67.62 22.54 44.38 14.79 67.62-22.54-44.38-14.79Z" fill="#EC856F"></path><path d="m264.7 231.41-67.62 22.54v34.57l67.62-22.54v-34.57Z" fill="#CD5747"></path><path d="m152.7 273.73 44.38 14.79v-34.57l-44.38-14.79v34.57Z" fill="#DE6A5A"></path><path d="M73.66 269.44v37.82a5 5 0 0 0 3.42 4.74l19.07 6.36c1.94.65 3.95-.8 3.95-2.85v-37.26l-26.43-8.81h-.01ZM108.76 165.76v19.52a5 5 0 0 0 3.42 4.74l6.17 2.06c1.94.65 3.95-.8 3.95-2.85v-19l-13.54-4.48v.01Z" fill="#fff"></path><path d="M221.75 245.73v9.71c0 2.05 2.01 3.49 3.95 2.85l15.96-5.32a5 5 0 0 0 3.42-4.74v-10.27l-23.33 7.78v-.01Z" fill="#E8E9EB"></path><path d="M437.34 256.36a2 2 0 0 0-2.63-1.9l-36 12a2 2 0 0 0-1.37 1.9v5.53a2 2 0 0 0 2.63 1.9l36-12a2 2 0 0 0 1.37-1.9v-5.53Z" fill="#BF8563"></path><path opacity=".5" d="M398.71 282.46a2 2 0 0 0-1.37 1.9v1.28a2 2 0 0 0 2.63 1.9l20-6.67a2 2 0 0 0 1.37-1.9v-1.28a2 2 0 0 0-2.63-1.9l-20 6.67ZM398.71 293.31a2 2 0 0 0-1.37 1.9v1.28a2 2 0 0 0 2.63 1.9l20-6.67a2 2 0 0 0 1.37-1.9v-1.28a2 2 0 0 0-2.63-1.9l-20 6.67Z" fill="#BF8563"></path><path d="M125.04 229.29a2 2 0 0 1 1.37 1.9v1.28a2 2 0 0 1-2.63 1.9l-20-6.67a2 2 0 0 1-1.37-1.9v-1.28a2 2 0 0 1 2.63-1.9l20 6.67ZM125.04 240.15a2 2 0 0 1 1.37 1.9v1.28a2 2 0 0 1-2.63 1.9l-20-6.67a2 2 0 0 1-1.37-1.9v-1.28a2 2 0 0 1 2.63-1.9l20 6.67Z" fill="#7FBEC6"></path><path d="M309.49 124.73a2 2 0 0 0-1.37 1.9v1.28a2 2 0 0 0 2.63 1.9l20-6.67a2 2 0 0 0 1.37-1.9v-1.28a2 2 0 0 0-2.63-1.9l-20 6.67Z" fill="#BF8563"></path><path d="m355.7 199.81-55.8 18.61a2 2 0 0 0-1.37 1.9v1.27a2 2 0 0 0 2.63 1.9l55.8-18.61a2 2 0 0 0 1.37-1.9v-1.28c0-1.36-1.34-2.33-2.63-1.9v.01Z" fill="#E9AF58"></path><path d="M377.38 174.72v14.8c0 2.05 2.01 3.49 3.95 2.85l15.96-5.32a5 5 0 0 0 3.42-4.74v-15.36l-23.33 7.78v-.01Z" fill="#E8E9EB"></path><path d="M245.83 103.13V121a5 5 0 0 0 3.42 4.74l6.17 2.06c1.94.65 3.95-.8 3.95-2.85V107.6l-13.54-4.48v.01Z" fill="#fff"></path><path d="m329.49 128.93-8 2.67a2 2 0 0 0-1.37 1.9v1.28a2 2 0 0 0 2.63 1.9l8-2.67a2 2 0 0 0 1.37-1.9v-1.28a2 2 0 0 0-2.63-1.9Z" fill="#BF8563"></path><path d="M191.31 404.54c0-1.9-1.22-3.59-3.02-4.19l-36.9-12.3c-1.43-.48-2.9.59-2.9 2.09v6.94l42.82 14.27v-6.82.01ZM148.49 405.59v19.81c0 1.9 1.22 3.59 3.02 4.19l36.9 12.3c1.43.48 2.9-.59 2.9-2.09v-19.93l-42.82-14.27v-.01Z" fill="#975D48"></path></g><defs><clipPath id="clip0_755_1599"><path fill="#fff" d="M0 0h512v512H0z"></path></clipPath></defs></svg>