<svg preserveAspectRatio="xMidYMid slice" width="448" height="448" viewBox="0 0 448 448" fill="none" xmlns="http://www.w3.org/2000/svg"><g clip-path="url(#clip0_656_1559)"><path d="M448 .2H0v448h448V.2z" fill="#f2f2f2"></path><path d="M91.3 39.2c-.2-2.3-2.1-4.1-4.4-4.1h-5.2c-2.5 0-4.5 2.1-4.4 4.7.1 1.3-.9 2.3-2.2 2.3H63v28h9.8c3.7 0 6.7 2.9 7 6.5l21.5 322.7c.1 1.8 1.7 3.3 3.5 3.3h7c2 0 3.6-1.7 3.5-3.7l-24-359.7z" fill="#b6babf"></path><path d="M60.1 35.2h5.2c2.5 0 4.5 2.1 4.4 4.7l-24 359.6c-.1 1.8-1.7 3.3-3.5 3.3h-7c-2 0-3.6-1.7-3.5-3.7l24-359.7c.2-2.5 2.1-4.2 4.4-4.2z" fill="#959a9e"></path><path d="M416.5 364.2h-63v14h63v-14z" fill="#b6babf"></path><path d="M334.1 42.2c7.7 0 14 6.3 14 14h-14v-14z" fill="#46a585"></path><path d="M364 49.2H80.5c-3.9 0-7 3.1-7 7s3.1 7 7 7H364c3.9 0 7-3.1 7-7s-3.1-7-7-7z" fill="#959a9e"></path><path d="M80.5 49.2H364c3.9 0 7 3.1 7 7H73.5c0-3.9 3.2-7 7-7z" fill="#9ea4aa"></path><path d="M48.4 364.2h298.2v14H48.4c-3.5 0-6.3-2.8-6.3-6.3v-1.3c-.1-3.6 2.8-6.4 6.3-6.4z" fill="#959a9e"></path><path d="M48.4 364.2h298.2v7H42v-.7c0-3.5 2.9-6.3 6.4-6.3z" fill="#9ea4aa"></path><path d="M399.3 39.2c-.2-2.3-2.1-4.1-4.4-4.1h-5.2c-2.5 0-4.5 2.1-4.4 4.7.1 1.3-.9 2.3-2.2 2.3H371v28h9.8c3.7 0 6.7 2.9 7 6.5l21.5 322.7c.1 1.8 1.7 3.3 3.5 3.3h7c2 0 3.6-1.7 3.5-3.7l-24-359.7z" fill="#b6babf"></path><path d="M368.1 35.2h5.2c2.5 0 4.5 2.1 4.4 4.7l-24 359.6c-.1 1.8-1.7 3.3-3.5 3.3h-7c-2 0-3.6-1.7-3.5-3.7l24-359.7c.2-2.5 2.1-4.3 4.4-4.2z" fill="#959a9e"></path><path d="m203.8 355.7.2-.8c2.9-10 12-16.8 22.3-16.8 13.5 0 24.8-10 26.5-23.4l.4-3.3c.2-1.9 1.8-3.2 3.7-3.2h22.9c2 0 3.7 1.7 3.7 3.7v45.6c0 3.7-3 6.6-6.6 6.6h-66.7c-4.4.1-7.6-4.2-6.4-8.4z" fill="#6d493c"></path><path d="M208.9 364.2h68.9c3.1 0 5.7-2.5 5.7-5.7v-1.3h-80.1c-.8 3.5 1.9 7 5.5 7z" fill="#975d48"></path><path d="m245.5 356.9.6-2c2.9-10 12-16.8 22.3-16.8 13.5 0 24.8-10 26.5-23.4l.4-3.3c.2-1.9 1.8-3.2 3.7-3.2h22.9c2 0 3.7 1.7 3.7 3.7v46.6c0 3.1-2.5 5.7-5.7 5.7H251c-3.8 0-6.6-3.7-5.5-7.3z" fill="#975d48"></path><path d="M334.1 63.2h14v49c0 1.9-1.6 3.5-3.5 3.5h-10.5V63.2z" fill="#108060"></path><path d="M250.9 364.2h68.9c3.1 0 5.7-2.5 5.7-5.7v-1.3h-80.1c-.8 3.5 1.9 7 5.5 7z" fill="#bf8563"></path><path d="m139.4 120.7-49.3 1.5-.7-24.7c3.6 2.1 12.6 6.7 24.9 6.3 4.2-.1 14.2-1 24.5-7.8.1 8.2.4 16.5.6 24.7z" fill="#a84c42"></path><path d="M119.2 83.8v-3.4c0-2.8-1.1-5.5-3.1-7.4l-4.7-4.7c-2.3-2.3-3.6-5.4-3.6-8.7v-3.5c0-3.9 3.1-7 7-7H127c-2.5-4.3-7.3-7.2-12.7-7-7.6.3-13.4 6.8-13.4 14.3v4.2c0 3.7 1.5 7.3 4.1 9.9l4.7 4.7c1.6 1.6 2.6 3.9 2.6 6.2v2.3c0 1.3-.7 2.5-1.9 3.1l-36.6 18.9v6.4l32.4-16.7c6-3.1 13.2-3.1 19.2 0l32.4 16.7v-6.4l-36.6-18.9c-1.2-.5-2-1.7-2-3z" fill="#757b80"></path><path d="m89.3 97.4-20.5 11c-9.1 4.9-15.8 13.3-18.5 23.2l-6.8 24.6c-.9 3.2 1.3 6.4 4.6 6.7l22 2.1 3.3 109c.2 7.8 7 13.7 14.7 12.9l70-7.1c7.9-.8 13.6-7.8 12.9-15.7l-9.3-101.9 17-5.4c4.2-1.3 6.5-5.7 5.3-9.9l-5-17.7c-3-10.6-10.5-19.4-20.5-24l-20-9.3-7.7 14.2c-7 12.9-25.4 13.5-33.1 1l-8.4-13.7z" fill="#de6a5a"></path><path d="m70.2 165 .3 10.9 9.5.6c6 .4 10.8-4.8 10-10.7l-3.3-25.2c-.1-1.1-1.7-1-1.8 0l-2.1 20.1c-.3 2.8-2.8 4.9-5.6 4.7l-7-.4zm114-18-5-17.7c-3-10.6-10.5-19.4-20.5-24l-11.5-5.3v-.1l-8.5-3.9-7.7 14.2c-7 12.9-25.4 13.5-33.1 1l-8.5-13.7-9.1 4.9 10 14.9c4.8 7.1 12.7 11.4 21.3 11.4h3.4c1.2 0 2 1.1 1.6 2.2l-7.2 23.1c-2.4 7.5 2.7 15.3 10.5 16.3l9.1 1.1c2.5.3 4.4 2.5 4.4 5v105.7l.3.3 24.6-2.5c7.9-.8 13.6-7.8 12.9-15.7l-9.3-101.9 17-5.4c4.1-1.3 6.5-5.7 5.3-9.9z" fill="#cd5747"></path><path d="m212.9 120.7-49.3 1.5-.7-24.7c3.6 2.1 12.6 6.7 24.9 6.3 4.2-.1 14.2-1 24.5-7.8.1 8.2.4 16.5.6 24.7z" fill="#92683e"></path><path d="M192.7 83.8v-3.4c0-2.8-1.1-5.5-3.1-7.4l-4.7-4.7c-2.3-2.3-3.6-5.4-3.6-8.7v-3.5c0-3.9 3.1-7 7-7h12.1c-2.5-4.3-7.3-7.2-12.7-7-7.6.3-13.4 6.8-13.4 14.3v4.2c0 3.7 1.5 7.3 4.1 9.9l4.7 4.7c1.6 1.6 2.6 3.9 2.6 6.2v2.3c0 1.3-.7 2.5-1.9 3.1l-36.6 18.9v6.4l32.4-16.7c6-3.1 13.2-3.1 19.2 0l32.4 16.7v-6.4l-36.6-18.9c-1.2-.5-1.9-1.7-1.9-3z" fill="#757b80"></path><path d="m162.8 97.4-20.5 11c-9.1 4.9-15.8 13.3-18.5 23.2l-6.8 24.6c-.9 3.2 1.3 6.4 4.6 6.7l22 2.1 3.3 109c.2 7.8 7 13.7 14.7 12.9l70-7.1c7.9-.8 13.6-7.8 12.9-15.7l-9.3-101.9 17-5.4c4.2-1.3 6.5-5.7 5.3-9.9l-5-17.7c-3-10.6-10.5-19.4-20.5-24l-20-9.3-7.7 14.2c-7 12.9-25.4 13.5-33.1 1l-8.4-13.7z" fill="#e8af57"></path><path d="m143.7 165 .3 10.9 9.5.6c6 .4 10.8-4.8 10-10.7l-3.3-25.2c-.1-1.1-1.7-1-1.8 0l-2.1 20.1c-.3 2.8-2.8 4.9-5.6 4.7l-7-.4zm113.9-18-5-17.7c-3-10.6-10.5-19.4-20.5-24l-11.5-5.3v-.1l-8.5-3.9-7.7 14.2c-7 12.9-25.4 13.5-33.1 1l-8.5-13.7-9.1 4.9 10 14.9c4.8 7.1 12.7 11.4 21.3 11.4h3.4c1.2 0 2 1.1 1.6 2.2l-7.2 23.1c-2.4 7.5 2.7 15.3 10.5 16.3l9.1 1.1c2.5.3 4.4 2.5 4.4 5v105.7l.3.3 24.6-2.5c7.9-.8 13.6-7.8 12.9-15.7l-9.3-101.9 17-5.4c4.2-1.3 6.6-5.7 5.3-9.9z" fill="#c5955f"></path><path d="m285.5 120.7-49.3 1.5-.7-24.7c3.6 2.1 12.6 6.7 24.9 6.3 4.2-.1 14.2-1 24.5-7.8l.6 24.7z" fill="#575d61"></path><path d="M265.3 83.8v-3.4c0-2.8-1.1-5.5-3.1-7.4l-4.7-4.7c-2.3-2.3-3.6-5.4-3.6-8.7v-3.5c0-3.9 3.1-7 7-7H273c-2.5-4.3-7.3-7.2-12.7-7-7.6.3-13.4 6.8-13.4 14.3v4.2c0 3.7 1.5 7.3 4.1 9.9l4.7 4.7c1.6 1.6 2.6 3.9 2.6 6.2v2.3c0 1.3-.7 2.5-1.9 3.1l-36.6 18.9v6.4l32.4-16.7c6-3.1 13.2-3.1 19.2 0l32.4 16.7v-6.4l-36.6-18.9c-1.1-.5-1.9-1.7-1.9-3z" fill="#757b80"></path><path d="m235.4 97.4-20.5 11c-9.1 4.9-15.8 13.3-18.5 23.2l-6.8 24.6c-.9 3.2 1.3 6.4 4.6 6.7l22 2.1 3.3 109c.2 7.8 7 13.7 14.7 12.9l70-7.1c7.9-.8 13.6-7.8 12.9-15.7L308 162.2l17-5.4c4.2-1.3 6.5-5.7 5.3-9.9l-5-17.7c-3-10.6-10.5-19.4-20.5-24l-20-9.3-7.7 14.2c-7 12.9-25.4 13.5-33.1 1l-8.6-13.7z" fill="#828a91"></path><path d="m216.3 165 .3 10.9 9.5.6c6 .4 10.8-4.8 10-10.7l-3.3-25.2c-.1-1.1-1.7-1-1.8 0l-2.1 20.1c-.3 2.8-2.8 4.9-5.6 4.7l-7-.4z" fill="#767d84"></path><path d="m330.3 146.9-5-17.7c-3-10.6-10.5-19.4-20.5-24l-9.1-4.2c10.1 6.5 17.3 16.9 19.7 28.8l4.5 21.6c.6 2.8-.1 5.5-1.6 7.6l6.7-2.1c4.1-1.4 6.5-5.7 5.3-10zm-21.9 20.6-2.9 2.2c-3.4 2.7-5.3 6.8-5.2 11.1l1.9 73.5c.2 7-4.9 13.1-11.9 14.1l-20.1 2.9c-9.4 1.4-17.9 6.6-23.4 14.4l57.5-5.9c7.9-.8 13.6-7.8 12.9-15.7l-8.8-96.6z" opacity=".4" fill="#9fa5ab"></path><path d="M294.3 42.2h39.8v133c0 2-1.7 3.7-3.7 3.7h-48.6c-2 0-3.7-1.7-3.7-3.7V58.4c0-9 7.3-16.2 16.2-16.2zm39.8 14v-7h7c-3.9 0-7 3.1-7 7z" fill="#46a585"></path><path d="M334.1 73.7h-56v17.5h56V73.7zm0 24.5h-56v7h56v-7z" fill="#6cc3b2"></path><path d="M323.6 178.8h7v14c0 1.9-1.6 3.5-3.5 3.5s-3.5-1.6-3.5-3.5v-14zm-28 0h7v14c0 1.9-1.6 3.5-3.5 3.5s-3.5-1.6-3.5-3.5v-14zm-14 0h7v14c0 1.9-1.6 3.5-3.5 3.5s-3.5-1.6-3.5-3.5v-14zm28 0h7v14c0 1.9-1.6 3.5-3.5 3.5s-3.5-1.6-3.5-3.5v-14z" fill="#108060"></path></g><defs><clipPath id="clip0_656_1559"><path fill="#fff" d="M0 0h448v448H0z"></path></clipPath></defs></svg>