<svg preserveAspectRatio="xMaxYMid slice" viewBox="0 0 1297 729" fill="none" xmlns="http://www.w3.org/2000/svg"><g clip-path="url(#clip0_894_1251)"><path d="M1296 .22H0v728h1296V.22Z" fill="#fff"></path><path opacity=".11" d="M918.66 568.19c-11.83 1.79-18.69 21.24-15.32 43.43 3.37 22.19 15.68 38.73 27.51 36.93 11.83-1.79 18.69-21.24 15.32-43.43-3.37-22.19-15.68-38.73-27.51-36.93Z" fill="#000"></path><path opacity=".07" d="m872.87 541.39 7.13-21.4-71.06-38.76c-8.54-4.66-12.34-14.66-9.45-23.65l-.66-.34c-10.48-5.37-14.62-18.22-9.25-28.69l21.22-41.42.08-.17.45-.87-65.14-18.61a81.647 81.647 0 0 1 1.82 28.26l-7.32 65.84a81.714 81.714 0 0 0 27.4 70.51 81.711 81.711 0 0 1 27.45 70.04l-2.67 32.69a94.52 94.52 0 0 0 17.29 62.65l21.82 30.55h72l-31.13-85.42a159.957 159.957 0 0 1 0-101.19l.02-.02ZM1149.36 177.83l-.03-.1c-1.34-5.03-3.19-9.9-5.36-14.64l-40.76-80.29a110.01 110.01 0 0 1-11.54-58.93l2-23.87H995.2l2.69 9.59c4.8 17.13 13.26 33.02 24.8 46.56l12.97 15.22c.79.93 1.57 1.88 2.32 2.84.32.41.61.82.92 1.23.42.57.86 1.13 1.26 1.7.37.52.71 1.05 1.07 1.58.32.48.66.95.97 1.44.44.69.86 1.4 1.28 2.1.2.34.42.66.61 1 .47.81.92 1.64 1.36 2.47.13.24.26.47.39.7.49.95.96 1.9 1.42 2.87.06.13.13.25.19.38.48 1.02.93 2.05 1.36 3.09.03.07.07.14.1.22.45 1.09.88 2.2 1.28 3.31 0 .02.02.04.02.06 3.26 9.07 4.84 18.72 4.49 28.49v.13c-.03.8-.07 1.61-.12 2.42-.06.85-.12 1.7-.2 2.55l-2.77 30.45c-.11 1.18-.18 2.37-.24 3.55l-.03.64c-.05 1.14-.07 2.27-.07 3.41v.64c0 1.17.03 2.35.09 3.52v.05c.06 1.17.14 2.33.25 3.5.02.19.03.37.05.56.11 1.14.24 2.27.4 3.4.03.19.05.38.08.57.17 1.17.36 2.34.57 3.5.22 1.18.47 2.36.75 3.52l.09.4c.27 1.14.56 2.27.88 3.4.04.15.08.29.13.44.67 2.34 1.45 4.66 2.32 6.93.03.07.06.15.08.22.44 1.13.9 2.25 1.38 3.35.04.1.09.2.13.3 1.01 2.29 2.11 4.53 3.32 6.72.01.02.02.05.04.07.6 1.09 1.23 2.16 1.88 3.23.04.07.09.14.13.21 1.33 2.17 2.76 4.28 4.29 6.33a88.513 88.513 0 0 0 3.49 4.37c.03.04.06.07.1.11a77.987 77.987 0 0 0 4.38 4.73l.83.83 10.08-12.09a8.732 8.732 0 0 1 10.88-2.08l33.57 17.39 1.84 1.18.06.04 13.28 8.53 3.52-15.24a101.37 101.37 0 0 0-.8-48.82v.02Zm-43.93 17.74c-9.29 2.69-20.45-7.62-24.92-23.05-4.47-15.43-.57-30.11 8.72-32.8 9.29-2.69 20.45 7.62 24.92 23.05 4.47 15.42.57 30.11-8.72 32.8Z" fill="#000"></path><path opacity=".09" d="M1089.23 139.72c-9.29 2.69-13.19 17.38-8.72 32.8 4.47 15.42 15.63 25.74 24.92 23.05 9.29-2.69 13.19-17.38 8.72-32.8-4.47-15.42-15.63-25.74-24.92-23.05Z" fill="#000"></path><path opacity=".07" d="M865.579 104.79c-.07.26-.14.51-.22.77.07-.26.14-.51.22-.77ZM943.06 111.35a74.975 74.975 0 0 1-9.75-41.6c.18-3.02.17-6.06-.02-9.08l-.14-2.25a66.143 66.143 0 0 0-7.41-26.54 66.728 66.728 0 0 0-4.25-7.06L904.31 0H804l-.11.36c-7.1 16.51-2.9 35.72 10.46 47.74l.6.54a146.958 146.958 0 0 1 28.62 35.17l5.3 9.08 6.3 1.29.32.07 10.17 2.08.33.07 2.19.45 11.02 3.73c2.23.75 4.32 1.86 6.2 3.28l12.01 9.1c1.73 1.31 3.57 2.49 5.48 3.53h-.02.02c1.14.63 2.3 1.23 3.47 1.8.15.07.29.14.44.21 1.02.5 2.05.97 3.09 1.43.12.05.25.11.37.16s.25.11.37.16c.48.21.97.39 1.46.59.49.2.97.4 1.46.59.14.05.28.11.42.16.14.05.28.11.42.16.61.23 1.24.43 1.86.65.62.22 1.23.45 1.86.65l5.22 1.69 5.22 1.69c1.25.4 2.51.77 3.77 1.12.15.04.29.08.44.11.15.04.29.08.44.11.51.13 1.02.25 1.53.37s1.02.26 1.53.37c.13.03.26.06.39.08.13.03.26.06.39.08 1.11.24 2.23.46 3.34.65.16.03.32.06.48.08.65.11 1.3.19 1.95.29.65.1 1.3.21 1.95.29 3.1.38 6.22.6 9.34.65l-11.04-19.32v.04ZM1274.61 107.94a200.07 200.07 0 0 1-44.98-91.76L1226.4 0H1164v23.15c0 25.94 8.8 51.1 24.95 71.39l24.81 31.15a92.767 92.767 0 0 1 20.03 47.51c.12 1.01.22 2.02.31 3.03.17 2.02.28 4.05.31 6.08.04 2.03.01 4.07-.09 6.1a92.737 92.737 0 0 1-6.53 30.09 80.91 80.91 0 0 0-.39 59.11l16.3 42.37c.63 1.65 1.22 3.31 1.78 4.98l3.12 3.34.02.02 1.32 1.41v.02l5.23 5.59 23.13 29.91a8.74 8.74 0 0 1-.1 11.08l-5.65 6.77-1.2 1.44 3.39 2.83c4.71 3.93 5.34 10.93 1.41 15.64l-26.89 32.31 1.7 15.29c3.22 29 16.91 56.01 38.99 75.1 2.1 1.81 4.1 3.71 6.05 5.66V132.62l-21.39-24.68Z" fill="#000"></path><path opacity=".09" d="m1226.4 0 3.24 16.18a199.876 199.876 0 0 0 44.98 91.76l21.39 24.68V0h-69.61ZM810.18 697.45a94.52 94.52 0 0 1-17.29-62.65l2.67-32.69a81.722 81.722 0 0 0-27.45-70.04 81.703 81.703 0 0 1-27.4-70.51l7.32-65.84c1.06-9.55.4-19.11-1.82-28.26l65.14 18.61 8.73-17.03-26.67-8.61h-.03l-22.49-7.27h-.02l-25.27-8.17c-2.37-.77-4.53-1.88-6.44-3.26-.07-.05-.14-.11-.21-.16-1.32-.98-2.52-2.08-3.6-3.29a23.22 23.22 0 0 1-3.96-6.31c-2.46 0-4.8-1.06-6.41-2.91l-4.26-4.86a81.616 81.616 0 0 1-19.1-40.41 82.42 82.42 0 0 1-.76-5.89l-.03-.39c-.08-.94-.15-1.88-.2-2.82v-.12c-.05-.98-.08-1.97-.1-2.95v-.46c0-.83 0-1.66.01-2.49 0-.18 0-.36.01-.55.03-.95.07-1.9.13-2.86 0-.14.02-.29.03-.43.05-.81.12-1.61.2-2.42.02-.25.05-.5.08-.75.1-.94.21-1.88.35-2.82l5.7-39.88c.32-2.25.52-4.5.65-6.75.44-7.52-.13-15.02-1.73-22.29-.05-.25-.12-.49-.18-.74-1.1-4.81-2.64-9.51-4.59-14.05a81.012 81.012 0 0 0-11.24-18.76l-52.8-80.39L587.2 0h-63.04l245.97 728h61.88l-21.82-30.55h-.01Zm-99.9-286.77c-10.66 2.96-23.58-10.04-28.86-29.04-5.28-19-.92-36.8 9.74-39.76 10.66-2.96 23.58 10.04 28.86 29.04 5.28 19 .92 36.8-9.74 39.76Z" fill="#000"></path><path opacity=".11" d="M691.15 341.88c-10.66 2.96-15.02 20.77-9.74 39.76 5.28 19 18.2 32 28.86 29.04 10.66-2.96 15.02-20.77 9.74-39.76-5.28-19-18.2-32-28.86-29.04Z" fill="#000"></path><path opacity=".09" d="M987.8 637.4c2.79-19.51 2.68-39.32-.32-58.79l21.18 11.55c10.67 5.82 24.03 1.89 29.85-8.78l18.61-34.11c.22 5.53.67 11.03 1.33 16.51l4.06 52.8a79.36 79.36 0 0 0 11.82 35.95l11.82 18.91a79.268 79.268 0 0 1 10.69 56.57h75.17l-16.1-48.31a79.33 79.33 0 0 1-3.34-35.8l6.76-49.53c2.73-15.78 1.66-31.98-3.11-47.26l50.14-60.24-2.67 23.99c-2.4 21.62 1.5 43.48 11.23 62.94l19.39 38.77c8.97 17.95 13 37.96 11.67 57.99l-1.96 57.44h52V531.35c-1.82-1.82-3.69-3.59-5.63-5.29a117.482 117.482 0 0 1-39.41-75.46l-1.7-15.29 26.89-32.31c3.93-4.71 3.3-11.71-1.41-15.64l-3.39-2.83-137.93 165.32c-9.68 11.6-26.94 13.16-38.54 3.48l-43.11-35.97-18.48 36.06c-5.37 10.48-18.22 14.62-28.69 9.25l-205.1-105.1c-2.89 8.99.91 18.99 9.45 23.65l71.06 38.76-7.13 21.4a159.957 159.957 0 0 0 0 101.19l31.13 85.42h74.86l8.94-90.6-.03.01Zm269.84-97.06c8.57-2.38 18.96 8.07 23.21 23.35 4.25 15.28.74 29.59-7.83 31.97-8.57 2.38-18.96-8.07-23.21-23.35-4.25-15.28-.74-29.59 7.83-31.97ZM930.86 648.55c-11.83 1.79-24.15-14.74-27.51-36.93-3.37-22.19 3.49-41.64 15.32-43.43 11.83-1.79 24.15 14.74 27.51 36.93 3.37 22.19-3.49 41.64-15.32 43.43Z" fill="#000"></path><path opacity=".11" d="M1257.63 540.34c-8.57 2.38-12.08 16.7-7.83 31.97 4.25 15.28 14.64 25.73 23.21 23.35 8.57-2.38 12.08-16.7 7.83-31.97-4.25-15.28-14.64-25.73-23.21-23.35Z" fill="#000"></path><path opacity=".07" d="M692.47 159.75a81.872 81.872 0 0 1 8.69 15.4c1.95 4.54 3.49 9.24 4.59 14.05.06.25.13.49.18.74a81.925 81.925 0 0 1 1.73 22.29c-.13 2.25-.33 4.5-.65 6.75l-5.7 39.88a81.713 81.713 0 0 0 17.95 63.66c.47.57.95 1.14 1.44 1.7l4.26 4.86a8.527 8.527 0 0 0 6.41 2.91c-.16-.37-.32-.73-.45-1.1-.02-.07-.05-.13-.07-.2a23.121 23.121 0 0 1-.24-14.94l23.63-73.16.04-.12 7.89-24.42.04-.11.24-.75-14.38-20.54a87.158 87.158 0 0 1-14.74-63.22l5.11-33.21a87.154 87.154 0 0 0-16.41-65.53L696 0H587.2l102.72 156.39c.88 1.1 1.73 2.22 2.55 3.36Z" fill="#000"></path><path opacity=".09" d="M1076.1 228.08a83.662 83.662 0 0 1-7.07-8.05 84.849 84.849 0 0 1-17.42-59.63l2.77-30.45c.08-.85.14-1.7.2-2.55.04-.58.07-1.16.09-1.74.87-19.75-6-39.06-18.83-54.1l-13.14-15.42a122.766 122.766 0 0 1-24.8-46.56L995.2 0h-90.89l17.18 24.82a66.314 66.314 0 0 1 11.66 33.6l.14 2.25c.19 3.02.19 6.05.02 9.08a74.975 74.975 0 0 0 9.75 41.6l11.04 19.32c.72.01 1.44.02 2.16.02l9.92-.09c2.35-.02 4.69.34 6.93 1.06l11.07 3.58 2.02.94.3.14 9.41 4.39.3.14 5.83 2.72 12.76 7.47 19.92 11.66a8.76 8.76 0 0 1 4.06 10.33l-1.78 5.52-7.7 23.83-9.18 28.42-.02.05-.02.05-3.47 10.76c.53.38 1.06.76 1.6 1.13 3.34 2.29 6.86 4.41 10.44 6.25l10.72 5.5c3.88 1.99 8 3.71 12.14 5.16 7.51-9.1 25.41-30.77 25.41-30.77l-.83-.83.01-.02Z" fill="#000"></path><path d="m.12 306.63-.12-.36v.4l.12-.04Z" fill="#000"></path><path opacity=".09" d="m1243.69 319.99-16.3-42.37a80.91 80.91 0 0 1 .39-59.11c12.48-31.2 7.11-66.7-14.03-92.82l-24.81-31.15a114.588 114.588 0 0 1-24.95-71.39V0h-70.33l-1.99 23.87a110.01 110.01 0 0 0 11.54 58.93l10.33 20.34 30.44 59.95c1.5 3.29 2.79 6.66 4.03 10.05.54 1.49.93 3.03 1.32 4.56l.03.12c4.19 15.81 4.55 32.56.8 48.82l-3.52 15.24.93.59.05.03.4.26 8.92 7.44c1.8 1.5 3.35 3.29 4.58 5.28l3.76 6.08 1.45 2.34c.25.41.52.81.78 1.22 1.82 2.83 3.79 5.54 5.91 8.14.15.18.31.35.46.53.69.83 1.38 1.65 2.1 2.45.11.12.22.24.32.36.35.38.71.75 1.06 1.13.42.45.84.91 1.27 1.35.19.19.37.38.56.57.74.74 1.49 1.47 2.26 2.18l.66.63c.96.88 1.95 1.75 2.95 2.59l8.41 7.02c1.01.84 2.03 1.65 3.08 2.44.24.18.48.35.73.53.84.63 1.69 1.24 2.55 1.83l.93.63c.84.57 1.69 1.11 2.56 1.65.15.09.3.19.45.28a88.465 88.465 0 0 0 13.79 6.89l9.22 3.61c2.19.86 4.22 2.06 6.02 3.56l8.92 7.44 3.74 4c-.56-1.67-1.15-3.33-1.78-4.98l.01.04Z" fill="#000"></path><path opacity=".07" d="m1086.14 671.43-11.82-18.91a79.32 79.32 0 0 1-11.82-35.95l-4.06-52.79c-.27-2.23-.49-4.46-.69-6.69-.07-.79-.14-1.58-.2-2.37-.06-.76-.11-1.52-.16-2.29-.11-1.7-.21-3.41-.28-5.11v-.04l-18.61 34.11c-1.09 2-2.45 3.76-4 5.27-.05.05-.11.1-.16.15-.47.45-.95.87-1.46 1.27l-.11.08c-.43.33-.87.65-1.31.95-.28.18-.55.36-.84.53-.29.17-.58.34-.87.5-.72.39-1.46.75-2.22 1.06-.05.02-.09.04-.14.06a21.973 21.973 0 0 1-18.74-1.1l-21.18-11.55a200.022 200.022 0 0 1 .31 58.79l-8.94 90.6h117.98a79.309 79.309 0 0 0-10.69-56.57h.01ZM1246.21 663.05c0-1.25-.02-2.5-.06-3.74-.12-3.74-.43-7.47-.93-11.17-.3-2.24-.67-4.47-1.1-6.68-.09-.44-.17-.89-.27-1.33-1.97-9.52-5.17-18.79-9.56-27.56l-9.05-18.09-10.34-20.68c-5.47-10.95-9.1-22.65-10.8-34.65-.38-2.67-.66-5.35-.85-8.03a112.827 112.827 0 0 1 .42-20.26l1.33-12 1.33-12-25.07 30.12-25.07 30.12c1.19 3.82 2.15 7.7 2.88 11.61.55 2.94.96 5.89 1.25 8.86.29 2.97.44 5.95.46 8.93 0 .99 0 1.99-.02 2.98-.11 4.97-.6 9.94-1.45 14.87l-6.76 49.54a79.33 79.33 0 0 0 3.34 35.8l16.1 48.31h72l1.96-57.44c.17-2.5.25-5.01.25-7.5l.01-.01Z" fill="#000"></path><path opacity=".09" d="m814.94 48.65-.6-.54C800.98 36.09 796.77 16.88 803.88.37L804 0H696l26.01 34.68a87.11 87.11 0 0 1 16.41 65.53l-5.11 33.21a87.17 87.17 0 0 0 14.74 63.22l14.38 20.54 39.52-122.35c.86-2.67 2.89-4.91 5.57-5.74 1.17-.36 2.42-.48 3.7-.32l37.64 4.12-5.3-9.08c-7.66-13.14-17.32-25-28.62-35.17v.01Z" fill="#000"></path><g opacity=".02" fill="#000"><path d="m542.229 191.053-75.83 25.491a4 4 0 0 0-2.517 5.066L573.49 547.68a4 4 0 0 0 5.066 2.517l75.831-25.49a4 4 0 0 0 2.517-5.066L547.295 193.57a4 4 0 0 0-5.066-2.517ZM656.95 532.24l-75.83 25.49c-2.09.7-3.22 2.97-2.52 5.07l55.62 165.42h92.84l-65.05-193.46a4.008 4.008 0 0 0-5.07-2.52h.01ZM259.038 252.49l-75.83 25.49a4 4 0 0 0-2.517 5.066l109.608 326.071a4 4 0 0 0 5.066 2.517l75.83-25.491a4 4 0 0 0 2.517-5.066l-109.608-326.07a4 4 0 0 0-5.066-2.517ZM295.42 624.26l34.96 103.97h92.84l-44.38-132.01a4.008 4.008 0 0 0-5.07-2.52l-75.83 25.49c-2.09.7-3.22 2.97-2.52 5.07ZM319.448 130.902l-75.83 25.49a4 4 0 0 0-2.517 5.066l109.608 326.071a4 4 0 0 0 5.066 2.517l75.83-25.49a4 4 0 0 0 2.517-5.066L324.514 133.419a4 4 0 0 0-5.066-2.517ZM319.41 118.23 279.73.22h-92.84l49.1 146.05c.7 2.09 2.97 3.22 5.07 2.52l75.83-25.49c2.09-.7 3.22-2.97 2.52-5.07ZM474.14 277.21 381.02.22h-92.84l102.55 305.03c.7 2.09 2.97 3.22 5.07 2.52l75.83-25.49c2.09-.7 3.22-2.97 2.52-5.07h-.01ZM355.82 502.67l75.84 225.56h92.84l-85.26-253.6a4.008 4.008 0 0 0-5.07-2.52l-75.83 25.49c-2.09.7-3.22 2.97-2.52 5.07ZM161.15 551.24 51.52 225.17a4.008 4.008 0 0 0-5.07-2.52L0 238.28v109.78l77.74 231.22c.7 2.09 2.97 3.22 5.07 2.52l75.83-25.49c2.09-.7 3.22-2.97 2.52-5.07h-.01ZM46.43 210.01 0 71.93v157.91l43.91-14.76c2.09-.7 3.22-2.97 2.52-5.07ZM82.84 594.45l44.98 133.78h92.84l-54.41-161.82a4.008 4.008 0 0 0-5.07-2.52l-75.83 25.49c-2.09.7-3.22 2.97-2.52 5.07h.01ZM109.402 108.665l-75.83 25.491a4 4 0 0 0-2.517 5.066l109.608 326.07a4 4 0 0 0 5.066 2.517l75.83-25.49a4 4 0 0 0 2.517-5.066L114.468 111.182a4 4 0 0 0-5.066-2.517ZM109.38 96 77.17.22H0v46.6l25.96 77.22c.7 2.09 2.97 3.22 5.07 2.52l75.83-25.49c2.09-.7 3.22-2.97 2.52-5.07ZM542.19 178.37 482.3.22h-92.84l69.32 206.19c.7 2.09 2.97 3.22 5.07 2.52l75.83-25.49c2.09-.7 3.22-2.97 2.52-5.07h-.01ZM.05 373.3l-.05.02V649.3l26.54 78.93h22.41l59.48-20c2.09-.7 3.22-2.97 2.52-5.07L.05 373.3ZM74.05 728.22h45.32l-3.33-9.9a4.008 4.008 0 0 0-5.07-2.52l-36.93 12.42h.01ZM259.01 239.82 178.45.22H85.61l89.98 267.64c.7 2.09 2.97 3.22 5.07 2.52l75.83-25.49c2.09-.7 3.22-2.97 2.52-5.07ZM145.79 480.44l83.31 247.78h92.84L229.2 452.39a4.008 4.008 0 0 0-5.07-2.52l-75.83 25.49c-2.09.7-3.22 2.97-2.52 5.07l.01.01ZM474.169 289.894l-75.831 25.491a4 4 0 0 0-2.517 5.066l109.609 326.07a4 4 0 0 0 5.066 2.517l75.83-25.49a4 4 0 0 0 2.517-5.066L479.235 292.411a4 4 0 0 0-5.066-2.517ZM510.55 661.65l22.38 66.58h92.84l-31.81-94.62a4.008 4.008 0 0 0-5.07-2.52l-75.83 25.49c-2.09.7-3.22 2.97-2.52 5.07h.01ZM18.56 728.22 0 673.03v55.19h18.56Z"></path></g><path opacity=".05" d="M524.16 0h-9.05l245.96 728h9.05L524.16 0Z" fill="#000"></path><path opacity=".07" d="m489.9 0 245.97 728h25.2L515.11 0H489.9Z" fill="#000"></path><path d="m1278.29 365.48-21.39-27.66c.34-.39.68-.78 1.01-1.17 1.54-1.85 1.43-4.57-.21-6.33l-8.76-9.43c-2.03-2.19-5.51-2-7.35.34-14.44 18.33-38.93 27.55-63.28 21.06-29.31-7.81-48.51-36.59-44.39-66.65 1.66-12.08 6.69-22.73 13.96-31.23 1.9-2.22 1.32-5.63-1.17-7.17l-10.91-6.79c-2.02-1.26-4.67-.86-6.21.95l-31.7-16.43a8.732 8.732 0 0 0-10.88 2.08s-27.99 33.76-35.5 42.86c.78.27 1.55.55 2.33.8 1.55.5 3.12.96 4.69 1.38 3.33.89 6.71 1.61 10.13 2.13l9.84 1.51.93.14c2.55.39 5.02 1.19 7.32 2.37l9.36 4.79 14.9 10.68c0 24.25 10.78 47.03 28.54 62.57-.14.28-87.79 171.31-87.79 171.31l43.11 35.97c11.6 9.68 28.86 8.12 38.54-3.48l144.78-173.52a8.74 8.74 0 0 0 .1-11.08Z" fill="#AF5B48"></path><path d="M1232.82 313.75c-1.8-1.5-3.84-2.71-6.02-3.56l-9.22-3.61a87.719 87.719 0 0 1-10.42-4.92h.02l-3.34 4-10.01 11.99-1.31 1.57c-.86 1.04-2.4 1.17-3.44.31l-29.99-25.02c-1.04-.86-1.17-2.4-.31-3.44l1.31-1.57 8.27-9.91 5.07-6.08a87.962 87.962 0 0 1-5.91-8.14c-.26-.41-.53-.81-.78-1.22l-1.45-2.34-3.76-6.09c-1.23-2-2.78-3.78-4.59-5.28l-8.92-7.44-.66.79-.09.1-2.38 2.85c-.46.55-.89 1.11-1.33 1.66-4.57 5.79-8.13 12.01-10.63 18.43-3.95 10.11-5.28 20.69-3.82 30.85l10.77 8.55.06.05 2.19 1.74 5.93 4.71a9.607 9.607 0 0 1 2.58 11.91l-1.28 2.51-2.12 4.14c.64.58 1.3 1.16 1.98 1.73l3.75 3.13c20.66 17.23 46.82 17.25 68.02 4.17 6.43-3.96 12.4-9.12 17.62-15.37l.14-.17 2.99-3.58-8.92-7.44v-.01Z" fill="#6D4B3E"></path><path d="M1207.15 301.65c-1.14-.63-2.26-1.29-3.37-1.97-.14-.08-.28-.17-.42-.26-.96-.6-1.91-1.21-2.85-1.85-.22-.15-.45-.3-.67-.45-.86-.6-1.71-1.21-2.55-1.83-.24-.18-.49-.35-.72-.53-1.04-.79-2.07-1.6-3.08-2.44l-8.41-7.02c-1.01-.84-1.99-1.7-2.95-2.59l-.66-.63c-.77-.71-1.52-1.44-2.26-2.18-.19-.19-.37-.38-.56-.57-.43-.44-.85-.9-1.27-1.35-.35-.38-.72-.74-1.06-1.13-.11-.12-.22-.24-.32-.36-.72-.8-1.41-1.62-2.1-2.45-.15-.18-.31-.35-.46-.53l-5.07 6.08-8.27 9.91-1.31 1.57c-.86 1.04-.72 2.57.31 3.44l29.99 25.02c1.03.86 2.57.72 3.44-.31l1.31-1.57 10.01-11.99 3.34-4h-.02l-.02-.01Z" fill="#fff"></path><path d="m1035.46 160.74-33.02-18.36-5.78-2.85v.04-.04l-14.24-7.02-9.2-2.95c-2.26-.72-4.62-1.08-6.99-1.05h-.87l-9.15.12c-3.18.04-6.35-.11-9.5-.42-1.49-.14-2.98-.33-4.46-.55l-1.49 4.65-5.46 17.02a2.21 2.21 0 0 1-2.78 1.43l-28.62-9.17-3.84-1.23h-.04l-1.13-.37a2.21 2.21 0 0 1-1.43-2.78l2.11-6.59.04-.12 4.24-13.24.55-1.72c-1.33-.68-2.65-1.4-3.95-2.15-.51-.3-1.02-.61-1.53-.92-.01 0-.03-.02-.04-.02a85.06 85.06 0 0 1-2.75-1.73c-1.23-.81-2.45-1.64-3.65-2.51l-8.08-5.91c-1.91-1.4-4.04-2.48-6.3-3.21l-9.2-2.95-22.02-3.6-37.54-4.25c-3.13-.35-6.12.98-7.97 3.36-.62.8-1.11 1.71-1.43 2.72l-.83 2.59-71.33 222.57c-3.3 10.3 2.37 21.33 12.68 24.63L942.77 409c10.3 3.3 21.33-2.37 24.63-12.68l71.37-222.7.79-2.46a8.834 8.834 0 0 0-4.12-10.41l.02-.01Z" fill="#E8AF57"></path><path d="M940.031 127.28c-3.97-.69-7.96-1.64-11.77-2.86l-10.55-3.38c-3.52-1.13-7.03-2.53-10.4-4.1-.55-.26-1.08-.53-1.62-.79-.42-.2-.85-.4-1.26-.61l-.55 1.72-4.24 13.24-.04.12-2.11 6.59c-.37 1.16.27 2.4 1.43 2.78l1.13.36h.04l3.84 1.24 28.62 9.17c1.16.37 2.4-.27 2.78-1.43l5.46-17.02 1.49-4.65c-.74-.11-1.49-.25-2.23-.38h-.02Z" fill="#fff"></path><path d="M848.38 92.27c-3.85 12.14-4.82 25.4-2.23 38.85 8 41.49 47.83 69.53 89.59 63.11 30.52-4.69 54.17-26.19 63.15-53.56.71-2.18-.33-4.55-2.4-5.54l-11.06-5.3c-2.56-1.23-5.58.15-6.4 2.87-6.4 21.29-24.88 38-48.74 40.76-28.71 3.32-55.77-15.49-62.61-43.57-2.75-11.29-2-22.48 1.47-32.55.91-2.63-.8-5.45-3.54-5.95l-12.04-2.21c-2.26-.41-4.51.9-5.2 3.1l.01-.01Z" fill="#C5955F"></path><path d="M867.69 129.89c6.84 28.08 33.9 46.89 62.61 43.57 23.85-2.76 42.33-19.47 48.74-40.76.12-.41.3-.78.51-1.12l-6.32-2.02c-2.26-.72-4.62-1.08-6.99-1.05h-.87l-9.15.12c-3.18.04-6.35-.11-9.5-.42-1.49-.14-2.98-.33-4.46-.55l-1.49 4.65-5.46 17.02a2.21 2.21 0 0 1-2.78 1.43l-28.62-9.17-3.84-1.23h-.04l-1.13-.37a2.21 2.21 0 0 1-1.43-2.78l2.11-6.59.04-.12 4.24-13.24.55-1.72c-1.33-.68-2.65-1.4-3.95-2.15-.51-.3-1.02-.61-1.53-.92-.01 0-.03-.02-.04-.02a98.14 98.14 0 0 1-2.76-1.73c-1.23-.81-2.45-1.64-3.65-2.51l-8.08-5.91c-1.91-1.4-4.04-2.48-6.3-3.21l-8.73-2.8c-.03.35-.1.71-.22 1.06-3.48 10.07-4.22 21.26-1.47 32.55l.01-.01Z" fill="#A2754B"></path><path opacity=".15" d="M727.52 320.59c-2.6 9.99 3 20.37 12.95 23.56l202.31 64.84c9.95 3.19 20.55-2.01 24.24-11.64.13-.34.28-.68.39-1.03l71.37-222.7.79-2.46a8.834 8.834 0 0 0-4.12-10.41l-8.78-4.88-68.53 215.21c-2.76 8.66-11.43 14-20.41 12.57l-45.9-7.33a156.755 156.755 0 0 1-56.55-20.76L814.9 343.2a156.745 156.745 0 0 0-87.4-22.6l.02-.01Z" fill="#fff"></path><path d="m1257.7 330.31-8.76-9.43c-2.03-2.19-5.51-2-7.35.34-14.44 18.33-38.93 27.55-63.28 21.06-29.31-7.81-48.51-36.59-44.39-66.65 1.66-12.08 6.69-22.73 13.96-31.23 1.9-2.22 1.32-5.63-1.17-7.17l-10.91-6.79c-2.05-1.28-4.75-.85-6.27 1.02-8.43 10.37-14.49 22.95-17.13 37.09-5.55 29.7 5.73 58.97 27.15 77.72-.14.28-.28.55-.42.83l-87.36 170.48 19.14 15.97 33.84-40.52c1.08-1.3 1.38-3 .93-4.51-.26-.9-.78-1.73-1.55-2.37l-13.48-11.25 13.84-26.61 18.39 15.34a4.885 4.885 0 0 0 6.88-.62l3.13-3.75a4.885 4.885 0 0 0-.62-6.88l-20.85-17.39 6.92-13.3 23.31 19.45a4.885 4.885 0 0 0 6.88-.62l9.38-11.25a4.885 4.885 0 0 0-.62-6.88l-27.41-22.87 22.82-43.84c7 4.03 14.68 7.1 22.92 8.97 31.61 7.16 62.99-4.74 82.29-28.02 1.54-1.85 1.43-4.57-.21-6.33v.01Z" fill="#9C483B"></path><path d="m1148.07 312.74-32.2-25.56-5.7-4.08v.05-.05l-14.05-10.06-9.36-4.79a23.97 23.97 0 0 0-7.32-2.37l-.93-.14-9.84-1.51c-3.42-.52-6.8-1.25-10.13-2.13-1.58-.42-3.14-.88-4.69-1.38l-2.42 4.73-8.87 17.31a2.393 2.393 0 0 1-3.23 1.04l-29.11-14.92-3.91-2-.04-.02-1.15-.59a2.393 2.393 0 0 1-1.04-3.23l3.43-6.7.06-.12 6.9-13.47.9-1.75c-1.31-.97-2.6-1.97-3.86-3-.5-.41-.99-.83-1.48-1.25-.01-.01-.03-.02-.04-.03-.9-.77-1.78-1.55-2.65-2.34a99.269 99.269 0 0 1-3.47-3.34l-7.63-7.78c-1.81-1.84-3.9-3.38-6.2-4.56l-9.36-4.79-23.01-7.76-39.56-11.21c-3.3-.93-6.75-.03-9.15 2.19a9.41 9.41 0 0 0-2.02 2.67l-1.35 2.63-116 226.37c-5.37 10.48-1.23 23.32 9.25 28.69l205.76 105.44c10.48 5.37 23.33 1.23 28.69-9.25l116.07-226.5 1.28-2.51a9.607 9.607 0 0 0-2.58-11.91l.01-.02Z" fill="#59B1AB"></path><path d="m850.68 246.49-55.84-18.03-5.06 15.67-6.96 21.55c-.11.33-.2.66-.28 1-.1.41-.18.83-.24 1.25-.09.57-.15 1.14-.17 1.71v.07c-.01.34 0 .69 0 1.03 0 .12.02.23.02.34.01.23.03.45.05.68.02.14.04.27.05.41l.09.6.09.43c.04.19.08.38.13.57.04.15.08.29.12.43.05.19.11.37.17.56.05.14.09.28.14.42.07.19.14.38.22.56.05.13.1.26.16.39.09.21.2.42.3.63.05.1.09.2.15.29l.12.21c.21.38.43.75.68 1.11.04.06.08.13.13.2.17.25.36.48.54.72.12.15.25.3.38.45.27.31.54.63.84.92 1.33 1.31 2.73 2.53 4.19 3.66.55.42 1.1.83 1.66 1.23a47.49 47.49 0 0 0 27.05 8.7c.65 0 1.29 0 1.94-.03.93-.03 1.85-.09 2.78-.18.92-.09 1.85-.2 2.77-.34.69-.1 1.36-.26 2.01-.45.44-.13.86-.29 1.28-.46.1-.04.21-.09.31-.13.21-.09.41-.19.61-.29.4-.2.79-.41 1.18-.64.19-.11.37-.22.55-.34.11-.07.22-.15.33-.23.29-.2.56-.42.83-.64.08-.07.17-.13.25-.21.33-.28.64-.58.94-.89.1-.1.2-.21.29-.32.2-.22.4-.44.58-.67.12-.14.23-.29.34-.43.17-.23.33-.46.49-.7.14-.21.27-.42.4-.63.16-.27.31-.55.46-.83.15-.3.3-.6.43-.91.17-.4.32-.8.46-1.21l12.02-37.23h.02Z" fill="#C5955F"></path><path d="M1086.76 268.23a23.97 23.97 0 0 0-7.32-2.37l-.93-.14-9.84-1.51c-3.42-.52-6.8-1.25-10.13-2.13-1.58-.42-3.14-.88-4.69-1.38l-2.42 4.73-8.87 17.31a2.393 2.393 0 0 1-3.23 1.04l-29.11-14.92-3.91-2-.04-.02-1.15-.59a2.393 2.393 0 0 1-1.04-3.23l3.43-6.7.06-.12 6.9-13.47.9-1.75c-1.31-.97-2.6-1.97-3.86-3-.5-.41-.99-.83-1.48-1.25-.01-.01-.03-.02-.04-.03-.9-.77-1.78-1.55-2.65-2.34a99.269 99.269 0 0 1-3.47-3.34l-7.63-7.78c-1.81-1.84-3.9-3.38-6.2-4.56l-9.36-4.79-.2.39-2.22 4.33-1.71 3.34c-.68 1.33-1.29 2.67-1.87 4.02-7.5 17.43-6.74 36.58.75 52.8.62 1.35 1.3 2.68 2.01 3.99.71 1.31 1.48 2.59 2.29 3.85.81 1.26 1.66 2.49 2.56 3.7.9 1.21 1.84 2.38 2.83 3.53a65.17 65.17 0 0 0 3.69 3.94c1.29 1.27 2.64 2.48 4.04 3.65.7.58 1.42 1.15 2.15 1.71.61.47 1.23.92 1.86 1.37.63.45 1.27.89 1.92 1.31 1.89 1.23 3.85 2.38 5.9 3.43.35.18.71.34 1.06.51 1.65.81 3.31 1.56 4.98 2.21 2.04.8 4.1 1.48 6.18 2.06 2.08.58 4.17 1.05 6.26 1.41 1.05.18 2.1.34 3.15.47 2.1.26 4.2.41 6.3.46 1.05.03 2.1.03 3.14 0 3.14-.08 6.25-.38 9.33-.9a65.1 65.1 0 0 0 12.83-3.58c2.37-.93 4.69-2 6.94-3.2 1.5-.8 2.97-1.66 4.41-2.58 2.16-1.38 4.24-2.89 6.24-4.54s3.91-3.43 5.72-5.33a64.96 64.96 0 0 0 5.1-6.07c1.05-1.42 2.04-2.89 2.99-4.41.77-1.24 1.5-2.52 2.2-3.82.15-.28.31-.55.45-.83l.42-.83 1.75-3.41 1.96-3.83-9.36-4.79.03-.02Z" fill="#1F8A84"></path><path d="M1051.52 259.91c-4.14-1.44-8.25-3.17-12.14-5.16l-10.72-5.5c-3.58-1.84-7.1-3.96-10.44-6.25-.54-.37-1.07-.76-1.6-1.13-.41-.29-.84-.58-1.24-.88l-.9 1.75-6.9 13.47-.06.12-3.43 6.7c-.6 1.18-.14 2.63 1.04 3.23l1.15.59.04.02 3.91 2 29.11 14.92c1.18.6 2.63.14 3.23-1.04l8.87-17.31 2.42-4.73c-.78-.25-1.55-.53-2.33-.8h-.01Z" fill="#fff"></path><path d="M804.531 211.14c-.28-.03-.56-.04-.84-.02-1.94.13-3.7 1.41-4.34 3.38l-1.5 4.65-.33 1.03-2.67 8.27 55.84 18.03.07-.22.4-1.25 1.49-4.62 2.54-7.87c.1-.29.15-.59.19-.89.01-.11.01-.21.02-.32.01-.18.02-.37 0-.55 0-.14-.02-.27-.04-.4-.02-.14-.05-.27-.08-.41-.04-.16-.07-.31-.12-.46-.03-.09-.07-.18-.1-.26-.36-.89-.97-1.68-1.78-2.23 0 0-.02-.01-.03-.02-.02-.02-.05-.03-.07-.05-.08-.06-.15-.12-.23-.16-.07-.04-.14-.06-.21-.09-.22-.11-.45-.23-.7-.31l-46.53-15.03c-.32-.1-.65-.17-.98-.21v.01Z" fill="#E5E6E6"></path><path d="M959.31 206.1c-6.28 12.35-9.68 26.42-9.27 41.32 1.25 45.97 39.05 83.12 85.03 83.62 33.6.37 62.81-18.54 77.29-46.34 1.15-2.21.45-4.94-1.59-6.37l-10.94-7.65c-2.53-1.77-6.02-.83-7.38 1.95-10.64 21.72-33.45 36.4-59.55 35.14-31.41-1.52-57.14-26.51-59.52-57.87-.95-12.61 1.83-24.5 7.34-34.69 1.44-2.67.11-5.99-2.74-7.02l-12.54-4.5c-2.36-.85-5 .17-6.13 2.4v.01Z" fill="#3F9E98"></path><path d="M789.101 429.87c-4.55 10.26-.38 22.41 9.74 27.59L1004.6 562.9c10.12 5.18 22.42 1.48 28.09-8.21.2-.35.42-.68.6-1.04l116.07-226.5 1.28-2.51a9.607 9.607 0 0 0-2.58-11.91l-8.56-6.79-111.69 218.95c-4.49 8.81-14.76 13.01-24.14 9.89l-47.989-16a170.677 170.677 0 0 1-57.05-32.3l-19.69-16.88a170.585 170.585 0 0 0-89.85-39.74l.01.01Z" fill="#78C2BD"></path><path d="m863.01 451.27 38.34-12.36h.02l105.39-33.98c-6.84-10.56-15.91-19.83-27.01-26.99l-3.65 1.18-43.63 14.07-27.99 9.02h-.03l-59.27 19.11c-.35.89-.68 1.79-1 2.69 0 .01 0 .02-.01.03a90.797 90.797 0 0 0-5.15 34.96l23.94-7.72h.04l.01-.01Z" fill="#E9AF58"></path><path d="m876.06 497.03 7.12-2.3.11-.04 40.56-13.07.07-.02 69.13-22.29 28.31-9.13a91.785 91.785 0 0 0-7.57-32.21 91.763 91.763 0 0 0-7.02-13.06l-105.39 33.98h-.02l-38.34 12.37h-.04l-23.94 7.73c.35 7.09 1.57 14.09 3.53 20.87l.07.04 33.43 17.13h-.01Z" fill="#DE6A5B"></path><path d="M973.98 534.65c15.53-8.47 28.78-21.5 37.46-38.43 1.41-2.75 2.66-5.54 3.77-8.35l-60.86 19.62-.05.02-35.46 11.43 42.11 21.58c4.48-1.6 8.83-3.57 13.02-5.86h.02l-.01-.01Z" fill="#1F8A84"></path><path d="m904.49 402.21 27.99-9.02 43.63-14.07 3.65-1.18c-.9-.58-1.83-1.13-2.76-1.69-1.69-1.01-3.4-1.98-5.17-2.89-21.59-11.06-45.52-12.69-67.1-6.4h-.03a91.842 91.842 0 0 0-23.23 10.44c-13.39 8.44-24.76 20.46-32.5 35.56a93.905 93.905 0 0 0-3.77 8.35l59.27-19.11h.03l-.01.01Z" fill="#E5E6E6"></path><path opacity=".35" d="m839.04 459 17.47-5.63c-5.5-3.34-11.17-6.36-17-9.06-.55 4.9-.71 9.82-.47 14.69Z" fill="#fff"></path><path d="M878.95 469.61c-7.05-6.05-14.57-11.45-22.44-16.24L839.04 459c.35 7.09 1.57 14.09 3.53 20.87l.07.04 33.43 17.13 7.12-2.3.11-.04 18.17-5.86c-.95-.78-1.89-1.56-2.82-2.36l-19.69-16.88-.01.01Z" fill="#E87E69"></path><path d="M973.98 534.65c3.49-1.9 6.86-4.05 10.09-6.41l-28.38-9.46c-5.59-1.86-11.06-4.02-16.41-6.44l-20.46 6.6 27.92 14.31 14.2 7.27c4.48-1.6 8.83-3.57 13.02-5.86h.02v-.01Z" fill="#3F9E98"></path></g><defs><clipPath id="clip0_894_1251"><path fill="#fff" d="M0 0h1296.02v728.23H0z"></path></clipPath></defs></svg>